<svg width="47" height="47" viewBox="0 0 47 47" fill="none" xmlns="http://www.w3.org/2000/svg">
<path d="M23.4997 5.16668C33.583 5.16668 41.833 13.4167 41.833 23.5C41.833 33.5833 33.583 41.8333 23.4997 41.8333C13.4163 41.8333 5.16634 33.5833 5.16634 23.5C5.16634 13.4167 13.4163 5.16668 23.4997 5.16668ZM23.4997 0.583344C10.8955 0.583344 0.583008 10.8958 0.583008 23.5C0.583008 36.1042 10.8955 46.4167 23.4997 46.4167C36.1038 46.4167 46.4163 36.1042 46.4163 23.5C46.4163 10.8958 36.1038 0.583344 23.4997 0.583344ZM34.958 34.9583H12.0413V30.375H34.958V34.9583ZM14.333 28.0833V21.2083H18.9163V28.0833H14.333ZM21.208 28.0833V21.2083H25.7913V28.0833H21.208ZM28.083 28.0833V21.2083H32.6663V28.0833H28.083ZM34.958 18.9167H12.0413V15.4792L23.4997 9.75001L34.958 15.4792V18.9167Z" fill="white"/>
</svg>
