<svg width="22" height="26" viewBox="0 0 22 26" fill="none" xmlns="http://www.w3.org/2000/svg">
<path d="M19.3876 22.375C18.3501 23.925 17.2501 25.4375 15.5751 25.4625C13.9001 25.5 13.3626 24.475 11.4626 24.475C9.55005 24.475 8.96255 25.4375 7.37505 25.5C5.73755 25.5625 4.50005 23.85 3.45005 22.3375C1.31255 19.25 -0.324946 13.5625 1.87505 9.7375C2.96255 7.8375 4.91255 6.6375 7.02505 6.6C8.62505 6.575 10.1501 7.6875 11.1376 7.6875C12.1126 7.6875 13.9626 6.35 15.9001 6.55C16.7126 6.5875 18.9876 6.875 20.4501 9.025C20.3376 9.1 17.7376 10.625 17.7626 13.7875C17.8001 17.5625 21.0751 18.825 21.1126 18.8375C21.0751 18.925 20.5876 20.6375 19.3876 22.375ZM12.2501 2.375C13.1626 1.3375 14.6751 0.55 15.9251 0.5C16.0876 1.9625 15.5001 3.4375 14.6251 4.4875C13.7626 5.55 12.3376 6.375 10.9376 6.2625C10.7501 4.825 11.4501 3.325 12.2501 2.375Z" fill="#202020"/>
</svg>
