<svg width="30" height="30" viewBox="0 0 30 30" fill="none" xmlns="http://www.w3.org/2000/svg">
<path d="M15 10C16.3807 10 17.5 8.88071 17.5 7.5C17.5 6.11929 16.3807 5 15 5C13.6193 5 12.5 6.11929 12.5 7.5C12.5 8.88071 13.6193 10 15 10Z" fill="#A5A5A5"/>
<path d="M17.5 11.25H12.5C12.3059 11.25 12.1146 11.2952 11.941 11.382C11.7674 11.4688 11.6164 11.5948 11.5 11.75L7.75 16.75L9.75 18.25L11.25 16.25V25H13.75V20H16.25V25H18.75V16.25L20.25 18.25L22.25 16.75L18.5 11.75C18.3836 11.5948 18.2326 11.4688 18.059 11.382C17.8854 11.2952 17.6941 11.25 17.5 11.25Z" fill="#A5A5A5"/>
</svg>
