<svg width="26" height="25" viewBox="0 0 26 25" fill="none" xmlns="http://www.w3.org/2000/svg">
<path d="M23.3125 7.4375H19.2016C19.2473 7.39883 19.2941 7.36133 19.3387 7.32032C19.6946 7.00412 19.9814 6.61788 20.1812 6.18577C20.3811 5.75365 20.4896 5.28496 20.5 4.80899C20.5154 4.28829 20.4242 3.76995 20.232 3.28577C20.0398 2.80159 19.7507 2.3618 19.3824 1.9934C19.0141 1.625 18.5744 1.33576 18.0903 1.14343C17.6062 0.951111 17.0879 0.859765 16.5672 0.875003C16.091 0.885259 15.6221 0.993697 15.1898 1.19353C14.7574 1.39336 14.371 1.68028 14.0547 2.03633C13.617 2.54363 13.2611 3.11615 13 3.73321C12.7389 3.11615 12.383 2.54363 11.9453 2.03633C11.629 1.68028 11.2426 1.39336 10.8102 1.19353C10.3779 0.993697 9.90898 0.885259 9.43281 0.875003C8.91211 0.859765 8.39379 0.951111 7.90967 1.14343C7.42555 1.33576 6.98585 1.625 6.61756 1.9934C6.24926 2.3618 5.96015 2.80159 5.76798 3.28577C5.5758 3.76995 5.48461 4.28829 5.5 4.80899C5.51042 5.28496 5.61893 5.75365 5.81876 6.18577C6.01858 6.61788 6.30542 7.00412 6.66133 7.32032C6.70586 7.35899 6.75273 7.39649 6.79844 7.4375H2.6875C2.19022 7.4375 1.71331 7.63505 1.36167 7.98668C1.01004 8.33831 0.8125 8.81522 0.8125 9.3125V13.0625C0.8125 13.5598 1.01004 14.0367 1.36167 14.3883C1.71331 14.74 2.19022 14.9375 2.6875 14.9375V22.4375C2.6875 22.9348 2.88504 23.4117 3.23667 23.7633C3.58831 24.115 4.06522 24.3125 4.5625 24.3125H21.4375C21.9348 24.3125 22.4117 24.115 22.7633 23.7633C23.115 23.4117 23.3125 22.9348 23.3125 22.4375V14.9375C23.8098 14.9375 24.2867 14.74 24.6383 14.3883C24.99 14.0367 25.1875 13.5598 25.1875 13.0625V9.3125C25.1875 8.81522 24.99 8.33831 24.6383 7.98668C24.2867 7.63505 23.8098 7.4375 23.3125 7.4375ZM15.4609 3.27852C15.6094 3.1146 15.7901 2.98314 15.9918 2.89239C16.1934 2.80164 16.4117 2.75356 16.6328 2.75118H16.6902C16.9494 2.7528 17.2057 2.80613 17.444 2.90806C17.6823 3.00998 17.8978 3.15844 18.078 3.34475C18.2582 3.53105 18.3994 3.75145 18.4933 3.99302C18.5873 4.23459 18.632 4.49247 18.625 4.75157C18.6226 4.9727 18.5745 5.19095 18.4838 5.39261C18.393 5.59428 18.2616 5.775 18.0977 5.92344C16.9855 6.90782 15.1398 7.25469 13.9961 7.37657C14.1367 6.13555 14.5234 4.33203 15.4609 3.27852ZM7.95039 3.32071C8.31361 2.95753 8.80551 2.75243 9.31914 2.75H9.37656C9.59769 2.75239 9.81594 2.80046 10.0176 2.89121C10.2193 2.98196 10.4 3.11343 10.5484 3.27735C11.5316 4.38828 11.8785 6.23047 12.0004 7.36953C10.8613 7.25235 9.01914 6.90078 7.9082 5.91758C7.74428 5.76914 7.61282 5.58842 7.52207 5.38675C7.43132 5.18509 7.38324 4.96684 7.38086 4.74571C7.37359 4.48231 7.41991 4.22018 7.51701 3.97523C7.6141 3.73027 7.75995 3.50759 7.9457 3.32071H7.95039ZM2.6875 9.3125H12.0625V13.0625H2.6875V9.3125ZM4.5625 14.9375H12.0625V22.4375H4.5625V14.9375ZM21.4375 22.4375H13.9375V14.9375H21.4375V22.4375ZM23.3125 13.0625H13.9375V9.3125H23.3125V13.0625Z" fill="#A5A5A5"/>
</svg>
