<svg width="25" height="24" viewBox="0 0 25 24" fill="none" xmlns="http://www.w3.org/2000/svg">
<path d="M20.375 0.125L14.75 5.75V18.125L20.375 13.0625V0.125ZM22.625 4.625V19.8125C21.3875 19.4187 20.0375 19.25 18.6875 19.25C16.775 19.25 14.0187 19.9812 12.5 20.9375V5.75C10.8687 4.5125 8.50625 4.0625 6.3125 4.0625C4.11875 4.0625 1.75625 4.5125 0.125 5.75V22.2312C0.125 22.5125 0.40625 22.7937 0.6875 22.7937C0.8 22.7937 0.85625 22.7375 0.96875 22.7375C2.4875 22.0062 4.68125 21.5 6.3125 21.5C8.50625 21.5 10.8687 21.95 12.5 23.1875C14.0187 22.2312 16.775 21.5 18.6875 21.5C20.5437 21.5 22.4562 21.8375 24.0312 22.6812C24.1437 22.7375 24.2 22.7375 24.3125 22.7375C24.5937 22.7375 24.875 22.4562 24.875 22.175V5.75C24.2 5.24375 23.4687 4.90625 22.625 4.625ZM10.25 19.7112C8.84375 19.3512 7.4375 19.25 6.3125 19.25C5.12 19.25 3.7025 19.4637 2.375 19.8125V7.02125C3.39875 6.57125 4.7825 6.3125 6.3125 6.3125C7.8425 6.3125 9.22625 6.57125 10.25 7.02125V19.7112Z" fill="#A5A5A5"/>
</svg>
