<svg width="55" height="39" viewBox="0 0 55 39" fill="none" xmlns="http://www.w3.org/2000/svg">
<path d="M1.31072 36V27.2727H6.57777V28.2102H2.36754V31.1591H6.30504V32.0966H2.36754V35.0625H6.64595V36H1.31072ZM9.09624 29.4545L10.6644 32.1307L12.2326 29.4545H13.3917L11.2781 32.7273L13.3917 36H12.2326L10.6644 33.4602L9.09624 36H7.93714L10.0167 32.7273L7.93714 29.4545H9.09624ZM14.8267 38.4545V29.4545H15.7983V30.4943H15.9176C15.9915 30.3807 16.0938 30.2358 16.2244 30.0597C16.358 29.8807 16.5483 29.7216 16.7955 29.5824C17.0455 29.4403 17.3835 29.3693 17.8097 29.3693C18.3608 29.3693 18.8466 29.5071 19.267 29.7827C19.6875 30.0582 20.0156 30.4489 20.2514 30.9545C20.4872 31.4602 20.6051 32.0568 20.6051 32.7443C20.6051 33.4375 20.4872 34.0384 20.2514 34.5469C20.0156 35.0526 19.6889 35.4446 19.2713 35.723C18.8537 35.9986 18.3722 36.1364 17.8267 36.1364C17.4063 36.1364 17.0696 36.0668 16.8168 35.9276C16.5639 35.7855 16.3693 35.625 16.233 35.446C16.0966 35.2642 15.9915 35.1136 15.9176 34.9943H15.8324V38.4545H14.8267ZM15.8153 32.7273C15.8153 33.2216 15.8878 33.6577 16.0327 34.0355C16.1776 34.4105 16.3892 34.7045 16.6676 34.9176C16.946 35.1278 17.2869 35.233 17.6903 35.233C18.1108 35.233 18.4616 35.1222 18.7429 34.9006C19.027 34.6761 19.2401 34.375 19.3821 33.9972C19.527 33.6165 19.5994 33.1932 19.5994 32.7273C19.5994 32.267 19.5284 31.8523 19.3864 31.483C19.2472 31.1108 19.0355 30.8168 18.7514 30.6009C18.4702 30.3821 18.1165 30.2727 17.6903 30.2727C17.2813 30.2727 16.9375 30.3764 16.6591 30.5838C16.3807 30.7884 16.1705 31.0753 16.0284 31.4446C15.8864 31.8111 15.8153 32.2386 15.8153 32.7273ZM24.8835 36.1364C24.2528 36.1364 23.7088 35.9972 23.2514 35.7188C22.7969 35.4375 22.446 35.0455 22.1989 34.5426C21.9545 34.0369 21.8324 33.4489 21.8324 32.7784C21.8324 32.108 21.9545 31.517 22.1989 31.0057C22.446 30.4915 22.7898 30.0909 23.2301 29.804C23.6733 29.5142 24.1903 29.3693 24.7812 29.3693C25.1222 29.3693 25.4588 29.4261 25.7912 29.5398C26.1236 29.6534 26.4261 29.8381 26.6989 30.0938C26.9716 30.3466 27.1889 30.6818 27.3509 31.0994C27.5128 31.517 27.5938 32.0312 27.5938 32.642V33.0682H22.5483V32.1989H26.571C26.571 31.8295 26.4972 31.5 26.3494 31.2102C26.2045 30.9205 25.9972 30.6918 25.7273 30.5241C25.4602 30.3565 25.1449 30.2727 24.7812 30.2727C24.3807 30.2727 24.0341 30.3722 23.7415 30.571C23.4517 30.767 23.2287 31.0227 23.0724 31.3381C22.9162 31.6534 22.8381 31.9915 22.8381 32.3523V32.9318C22.8381 33.4261 22.9233 33.8452 23.0938 34.1889C23.267 34.5298 23.5071 34.7898 23.8139 34.9688C24.1207 35.1449 24.4773 35.233 24.8835 35.233C25.1477 35.233 25.3864 35.196 25.5994 35.1222C25.8153 35.0455 26.0014 34.9318 26.1577 34.7812C26.3139 34.6278 26.4347 34.4375 26.5199 34.2102L27.4915 34.483C27.3892 34.8125 27.2173 35.1023 26.9759 35.3523C26.7344 35.5994 26.4361 35.7926 26.081 35.9318C25.7259 36.0682 25.3267 36.1364 24.8835 36.1364ZM30.1293 32.0625V36H29.1236V29.4545H30.0952V30.4773H30.1804C30.3338 30.1449 30.5668 29.8778 30.8793 29.6761C31.1918 29.4716 31.5952 29.3693 32.0895 29.3693C32.5327 29.3693 32.9205 29.4602 33.2528 29.642C33.5852 29.821 33.8438 30.0938 34.0284 30.4602C34.2131 30.8239 34.3054 31.2841 34.3054 31.8409V36H33.2997V31.9091C33.2997 31.3949 33.1662 30.9943 32.8991 30.7074C32.6321 30.4176 32.2656 30.2727 31.7997 30.2727C31.4787 30.2727 31.1918 30.3423 30.9389 30.4815C30.6889 30.6207 30.4915 30.8239 30.3466 31.0909C30.2017 31.358 30.1293 31.6818 30.1293 32.0625ZM40.7795 30.9205L39.8761 31.1761C39.8192 31.0256 39.7354 30.8793 39.6246 30.7372C39.5167 30.5923 39.369 30.473 39.1815 30.3793C38.994 30.2855 38.7539 30.2386 38.4613 30.2386C38.0607 30.2386 37.7269 30.331 37.4599 30.5156C37.1957 30.6974 37.0636 30.929 37.0636 31.2102C37.0636 31.4602 37.1545 31.6577 37.3363 31.8026C37.5181 31.9474 37.8022 32.0682 38.1886 32.1648L39.1602 32.4034C39.7454 32.5455 40.1815 32.7628 40.4684 33.0554C40.7553 33.3452 40.8988 33.7187 40.8988 34.1761C40.8988 34.5511 40.7908 34.8864 40.5749 35.1818C40.3619 35.4773 40.0636 35.7102 39.68 35.8807C39.2965 36.0511 38.8505 36.1364 38.342 36.1364C37.6744 36.1364 37.1218 35.9915 36.6843 35.7017C36.2468 35.4119 35.9698 34.9886 35.8533 34.4318L36.8079 34.1932C36.8988 34.5455 37.0707 34.8097 37.3235 34.9858C37.5792 35.1619 37.913 35.25 38.3249 35.25C38.7937 35.25 39.1658 35.1506 39.4414 34.9517C39.7198 34.75 39.859 34.5085 39.859 34.2273C39.859 34 39.7795 33.8097 39.6204 33.6562C39.4613 33.5 39.217 33.3835 38.8874 33.3068L37.7965 33.0511C37.1971 32.9091 36.7567 32.6889 36.4755 32.3906C36.1971 32.0895 36.0579 31.7131 36.0579 31.2614C36.0579 30.892 36.1616 30.5653 36.369 30.2812C36.5792 29.9972 36.8647 29.7741 37.2255 29.6122C37.5891 29.4503 38.0011 29.3693 38.4613 29.3693C39.109 29.3693 39.6175 29.5114 39.9869 29.7955C40.359 30.0795 40.6232 30.4545 40.7795 30.9205ZM45.157 36.1364C44.5263 36.1364 43.9822 35.9972 43.5249 35.7188C43.0703 35.4375 42.7195 35.0455 42.4723 34.5426C42.228 34.0369 42.1058 33.4489 42.1058 32.7784C42.1058 32.108 42.228 31.517 42.4723 31.0057C42.7195 30.4915 43.0632 30.0909 43.5036 29.804C43.9467 29.5142 44.4638 29.3693 45.0547 29.3693C45.3956 29.3693 45.7322 29.4261 46.0646 29.5398C46.397 29.6534 46.6996 29.8381 46.9723 30.0938C47.245 30.3466 47.4624 30.6818 47.6243 31.0994C47.7862 31.517 47.8672 32.0312 47.8672 32.642V33.0682H42.8217V32.1989H46.8445C46.8445 31.8295 46.7706 31.5 46.6229 31.2102C46.478 30.9205 46.2706 30.6918 46.0007 30.5241C45.7337 30.3565 45.4183 30.2727 45.0547 30.2727C44.6541 30.2727 44.3075 30.3722 44.0149 30.571C43.7251 30.767 43.5021 31.0227 43.3459 31.3381C43.1896 31.6534 43.1115 31.9915 43.1115 32.3523V32.9318C43.1115 33.4261 43.1967 33.8452 43.3672 34.1889C43.5405 34.5298 43.7805 34.7898 44.0874 34.9688C44.3942 35.1449 44.7507 35.233 45.157 35.233C45.4212 35.233 45.6598 35.196 45.8729 35.1222C46.0888 35.0455 46.2749 34.9318 46.4311 34.7812C46.5874 34.6278 46.7081 34.4375 46.7933 34.2102L47.7649 34.483C47.6626 34.8125 47.4908 35.1023 47.2493 35.3523C47.0078 35.5994 46.7095 35.7926 46.3544 35.9318C45.9993 36.0682 45.6001 36.1364 45.157 36.1364ZM54.0334 30.9205L53.13 31.1761C53.0732 31.0256 52.9893 30.8793 52.8786 30.7372C52.7706 30.5923 52.6229 30.473 52.4354 30.3793C52.2479 30.2855 52.0078 30.2386 51.7152 30.2386C51.3146 30.2386 50.9808 30.331 50.7138 30.5156C50.4496 30.6974 50.3175 30.929 50.3175 31.2102C50.3175 31.4602 50.4084 31.6577 50.5902 31.8026C50.772 31.9474 51.0561 32.0682 51.4425 32.1648L52.4141 32.4034C52.9993 32.5455 53.4354 32.7628 53.7223 33.0554C54.0092 33.3452 54.1527 33.7187 54.1527 34.1761C54.1527 34.5511 54.0447 34.8864 53.8288 35.1818C53.6158 35.4773 53.3175 35.7102 52.9339 35.8807C52.5504 36.0511 52.1044 36.1364 51.5959 36.1364C50.9283 36.1364 50.3757 35.9915 49.9382 35.7017C49.5007 35.4119 49.2237 34.9886 49.1072 34.4318L50.0618 34.1932C50.1527 34.5455 50.3246 34.8097 50.5774 34.9858C50.8331 35.1619 51.1669 35.25 51.5788 35.25C52.0476 35.25 52.4197 35.1506 52.6953 34.9517C52.9737 34.75 53.1129 34.5085 53.1129 34.2273C53.1129 34 53.0334 33.8097 52.8743 33.6562C52.7152 33.5 52.4709 33.3835 52.1413 33.3068L51.0504 33.0511C50.451 32.9091 50.0107 32.6889 49.7294 32.3906C49.451 32.0895 49.3118 31.7131 49.3118 31.2614C49.3118 30.892 49.4155 30.5653 49.6229 30.2812C49.8331 29.9972 50.1186 29.7741 50.4794 29.6122C50.843 29.4503 51.255 29.3693 51.7152 29.3693C52.3629 29.3693 52.8714 29.5114 53.2408 29.7955C53.6129 30.0795 53.8771 30.4545 54.0334 30.9205Z" fill="#BEF397"/>
<path d="M30 8H36" stroke="#BEF397" stroke-width="1.5" stroke-linecap="round"/>
<rect x="13.5" y="0.5" width="28" height="22" rx="2.5" fill="black" stroke="#BEF397"/>
<path d="M21.6713 17.0909V6.18182H22.3702V17.0909H21.6713ZM23.8574 9.56534C23.812 9.16193 23.6245 8.84943 23.2949 8.62784C22.9654 8.40341 22.5506 8.29119 22.0506 8.29119C21.6926 8.29119 21.383 8.34801 21.1216 8.46165C20.8603 8.57244 20.6571 8.72585 20.5123 8.92188C20.3702 9.11506 20.2992 9.33523 20.2992 9.58239C20.2992 9.78977 20.3475 9.96875 20.4441 10.1193C20.5435 10.2699 20.6728 10.3963 20.8319 10.4986C20.9938 10.598 21.1671 10.6818 21.3517 10.75C21.5364 10.8153 21.714 10.8693 21.8844 10.9119L22.7367 11.1335C23.0151 11.2017 23.3006 11.294 23.5932 11.4105C23.8858 11.527 24.1571 11.6804 24.4071 11.8707C24.6571 12.0611 24.8588 12.2969 25.0123 12.5781C25.1685 12.8594 25.2466 13.196 25.2466 13.5881C25.2466 14.0824 25.1188 14.5213 24.8631 14.9048C24.6103 15.2884 24.2424 15.5909 23.7594 15.8125C23.2793 16.0341 22.6983 16.1449 22.0165 16.1449C21.3631 16.1449 20.7978 16.0412 20.3205 15.8338C19.8432 15.6264 19.4696 15.3324 19.1998 14.9517C18.9299 14.5682 18.7807 14.1136 18.7523 13.5881H20.0733C20.0989 13.9034 20.2012 14.1662 20.3801 14.3764C20.562 14.5838 20.7935 14.7386 21.0748 14.8409C21.3588 14.9403 21.6699 14.9901 22.008 14.9901C22.3801 14.9901 22.7111 14.9318 23.0009 14.8153C23.2935 14.696 23.5236 14.5312 23.6912 14.321C23.8588 14.108 23.9426 13.8594 23.9426 13.5753C23.9426 13.3168 23.8688 13.1051 23.7211 12.9403C23.5762 12.7756 23.3787 12.6392 23.1287 12.5312C22.8816 12.4233 22.6017 12.3281 22.2892 12.2457L21.258 11.9645C20.5591 11.7741 20.0051 11.4943 19.5961 11.125C19.1898 10.7557 18.9867 10.267 18.9867 9.65909C18.9867 9.15625 19.123 8.71733 19.3958 8.34233C19.6685 7.96733 20.0378 7.67614 20.5037 7.46875C20.9696 7.25852 21.4952 7.15341 22.0804 7.15341C22.6713 7.15341 23.1926 7.2571 23.6444 7.46449C24.0989 7.67188 24.4569 7.95739 24.7182 8.32102C24.9796 8.68182 25.1159 9.09659 25.1273 9.56534H23.8574Z" fill="#BEF397"/>
<circle cx="33.5" cy="19.5" r="7" fill="black" stroke="#BEF397"/>
<path d="M33.5 15V22.5M33.5 22.5L30.5 19.5M33.5 22.5L36.5 19.5" stroke="#BEF397" stroke-linecap="round"/>
</svg>
