<svg width="20" height="16" viewBox="0 0 20 16" fill="none" xmlns="http://www.w3.org/2000/svg">
<path d="M4.21249 0.704694C4.15761 0.642824 4.09099 0.592463 4.01649 0.55653C3.942 0.520597 3.86111 0.499807 3.77853 0.495364C3.69594 0.490921 3.61329 0.502913 3.53537 0.530647C3.45746 0.558381 3.38582 0.601304 3.32461 0.656928C3.2634 0.712552 3.21384 0.779771 3.17881 0.85469C3.14377 0.929609 3.12395 1.01074 3.1205 1.09337C3.11704 1.17601 3.13003 1.2585 3.15869 1.33608C3.18736 1.41366 3.23114 1.48478 3.28749 1.54532L4.79062 3.19923C1.95312 4.94063 0.732805 7.62501 0.678899 7.74688C0.643362 7.82681 0.625 7.91331 0.625 8.00079C0.625 8.08826 0.643362 8.17476 0.678899 8.25469C0.706243 8.31641 1.36796 9.7836 2.83905 11.2547C4.79921 13.2141 7.27499 14.25 9.99999 14.25C11.4005 14.258 12.7868 13.9696 14.068 13.4039L15.7867 15.2953C15.8416 15.3572 15.9082 15.4076 15.9827 15.4435C16.0572 15.4794 16.1381 15.5002 16.2207 15.5047C16.3033 15.5091 16.3859 15.4971 16.4638 15.4694C16.5417 15.4416 16.6134 15.3987 16.6746 15.3431C16.7358 15.2875 16.7854 15.2202 16.8204 15.1453C16.8554 15.0704 16.8753 14.9893 16.8787 14.9066C16.8822 14.824 16.8692 14.7415 16.8405 14.6639C16.8118 14.5863 16.7681 14.5152 16.7117 14.4547L4.21249 0.704694ZM7.91015 6.62969L11.1656 10.2117C10.6754 10.4696 10.1134 10.5574 9.56783 10.4613C9.02229 10.3652 8.52413 10.0906 8.15157 9.68064C7.77901 9.2707 7.55314 8.74864 7.50945 8.19643C7.46575 7.64421 7.6067 7.09312 7.91015 6.62969ZM9.99999 13C7.5953 13 5.49452 12.1258 3.75546 10.4024C3.04164 9.69296 2.43454 8.88375 1.95312 8.00001C2.31952 7.31329 3.48905 5.39141 5.65234 4.14219L7.05859 5.68516C6.51416 6.38243 6.23377 7.24972 6.26697 8.13373C6.30017 9.01775 6.64483 9.86156 7.24002 10.516C7.83521 11.1705 8.64261 11.5935 9.51952 11.7102C10.3964 11.8269 11.2864 11.6299 12.032 11.1539L13.1828 12.4195C12.1672 12.8092 11.0878 13.006 9.99999 13ZM10.4687 5.54454C10.3059 5.51346 10.162 5.41895 10.0689 5.28182C9.97568 5.14468 9.94079 4.97615 9.97187 4.81329C10.0029 4.65043 10.0975 4.50659 10.2346 4.4134C10.3717 4.32022 10.5403 4.28533 10.7031 4.31641C11.4997 4.47084 12.225 4.87864 12.7708 5.47898C13.3167 6.07932 13.6539 6.84004 13.732 7.64766C13.7475 7.8127 13.6967 7.9771 13.5909 8.10471C13.4851 8.23233 13.333 8.31269 13.168 8.32813C13.1484 8.32928 13.1289 8.32928 13.1094 8.32813C12.9532 8.3288 12.8024 8.27095 12.6867 8.16597C12.571 8.06099 12.4988 7.91649 12.4844 7.76094C12.4318 7.22375 12.2072 6.71788 11.844 6.31856C11.4809 5.91923 10.9985 5.64777 10.4687 5.54454ZM19.3187 8.25469C19.2859 8.32813 18.4945 10.0805 16.7125 11.6766C16.6516 11.7328 16.5801 11.7764 16.5022 11.8048C16.4243 11.8332 16.3415 11.8458 16.2587 11.8419C16.1759 11.8379 16.0947 11.8176 16.0198 11.782C15.9449 11.7464 15.8779 11.6962 15.8226 11.6344C15.7673 11.5726 15.7249 11.5005 15.6977 11.4221C15.6706 11.3438 15.6593 11.2608 15.6645 11.1781C15.6698 11.0953 15.6914 11.0145 15.7282 10.9402C15.765 10.8659 15.8162 10.7996 15.8789 10.7453C16.7532 9.95987 17.4876 9.03154 18.0508 8.00001C17.5683 7.11546 16.9599 6.3057 16.2445 5.5961C14.5055 3.87423 12.4047 3.00001 9.99999 3.00001C9.49332 2.99939 8.98745 3.04041 8.48749 3.12266C8.40619 3.13704 8.32284 3.13517 8.24227 3.11715C8.1617 3.09913 8.08549 3.06533 8.01805 3.0177C7.95062 2.97006 7.89329 2.90954 7.84938 2.83962C7.80547 2.7697 7.77584 2.69177 7.76222 2.61034C7.7486 2.52891 7.75124 2.44559 7.77 2.36518C7.78877 2.28478 7.82327 2.20889 7.87153 2.1419C7.91979 2.07491 7.98085 2.01814 8.05117 1.97488C8.12149 1.93162 8.19969 1.90272 8.28124 1.88985C8.84934 1.79605 9.4242 1.74928 9.99999 1.75001C12.725 1.75001 15.2008 2.78594 17.1609 4.7461C18.632 6.21719 19.2937 7.68516 19.3211 7.74688C19.3566 7.82681 19.375 7.91331 19.375 8.00079C19.375 8.08826 19.3566 8.17476 19.3211 8.25469H19.3187Z" fill="black"/>
</svg>
