<svg width="26" height="28" viewBox="0 0 26 28" fill="none" xmlns="http://www.w3.org/2000/svg">
<path d="M25.7242 11.9773L25.5918 11.4154H13.3785V16.5846H20.6758C19.9182 20.1822 16.4025 22.076 13.5309 22.076C11.4414 22.076 9.23887 21.1971 7.78105 19.7844C7.01191 19.0271 6.39968 18.1256 5.97941 17.1314C5.55914 16.1373 5.33908 15.07 5.33184 13.9906C5.33184 11.8133 6.31035 9.63535 7.73418 8.20273C9.15801 6.77012 11.3084 5.96855 13.4465 5.96855C15.8951 5.96855 17.65 7.26875 18.3062 7.86172L21.9795 4.20781C20.902 3.26094 17.9418 0.875 13.3281 0.875C9.76855 0.875 6.35547 2.23848 3.86055 4.7252C1.39844 7.17383 0.124023 10.7146 0.124023 14C0.124023 17.2854 1.32988 20.6492 3.71582 23.1172C6.26523 25.7492 9.87578 27.125 13.5936 27.125C16.9762 27.125 20.1824 25.7996 22.4676 23.3949C24.7141 21.0277 25.876 17.7523 25.876 14.3188C25.876 12.8732 25.7307 12.0148 25.7242 11.9773Z" fill="black"/>
</svg>
