<svg width="32" height="32" viewBox="0 0 32 32" fill="none" xmlns="http://www.w3.org/2000/svg">
<path d="M15.9998 7.58667L22.6665 13.5867V24H19.9998V16H11.9998V24H9.33317V13.5867L15.9998 7.58667ZM15.9998 4L2.6665 16H6.6665V26.6667H14.6665V18.6667H17.3332V26.6667H25.3332V16H29.3332L15.9998 4Z" fill="#A5A5A5"/>
<circle cx="16" cy="26" r="4.5" fill="#202020" stroke="#A5A5A5"/>
<path d="M16.7656 22.4141V23.5586H16.1484V22.4141H16.7656ZM16.6875 28.793V29.8438H16.0703V28.793H16.6875ZM17.0312 27.5C17.0312 27.3542 17.0065 27.2318 16.957 27.1328C16.9102 27.0339 16.832 26.9466 16.7227 26.8711C16.6133 26.7956 16.4688 26.7214 16.2891 26.6484C15.9453 26.513 15.6432 26.3724 15.3828 26.2266C15.1224 26.0781 14.9193 25.8932 14.7734 25.6719C14.6276 25.4505 14.5547 25.1667 14.5547 24.8203C14.5547 24.4974 14.6328 24.2174 14.7891 23.9805C14.9453 23.7409 15.1615 23.556 15.4375 23.4258C15.7161 23.2956 16.0378 23.2305 16.4023 23.2305C16.681 23.2305 16.9349 23.2721 17.1641 23.3555C17.3932 23.4388 17.5898 23.5586 17.7539 23.7148C17.9206 23.8711 18.0482 24.0638 18.1367 24.293C18.2253 24.5195 18.2695 24.7786 18.2695 25.0703H17.0469C17.0469 24.9167 17.0312 24.7839 17 24.6719C16.9688 24.5573 16.9232 24.4635 16.8633 24.3906C16.8034 24.3151 16.7331 24.2591 16.6523 24.2227C16.5742 24.1862 16.4857 24.168 16.3867 24.168C16.2435 24.168 16.1263 24.1979 16.0352 24.2578C15.944 24.3151 15.8776 24.3932 15.8359 24.4922C15.7943 24.5911 15.7734 24.7018 15.7734 24.8242C15.7734 24.9492 15.7956 25.0586 15.8398 25.1523C15.8867 25.2461 15.9648 25.332 16.0742 25.4102C16.1836 25.4883 16.3333 25.5677 16.5234 25.6484C16.862 25.7865 17.1615 25.9323 17.4219 26.0859C17.6823 26.237 17.8854 26.4232 18.0312 26.6445C18.1797 26.8633 18.2539 27.1458 18.2539 27.4922C18.2539 27.8307 18.1745 28.1185 18.0156 28.3555C17.8594 28.5924 17.6393 28.7734 17.3555 28.8984C17.0742 29.0208 16.7487 29.082 16.3789 29.082C16.1315 29.082 15.8867 29.0508 15.6445 28.9883C15.4049 28.9232 15.1862 28.8177 14.9883 28.6719C14.7904 28.526 14.6328 28.332 14.5156 28.0898C14.3984 27.8477 14.3398 27.5508 14.3398 27.1992H15.5625C15.5625 27.3815 15.5846 27.5339 15.6289 27.6562C15.6758 27.776 15.737 27.8724 15.8125 27.9453C15.8906 28.0156 15.9779 28.0664 16.0742 28.0977C16.1732 28.1289 16.2747 28.1445 16.3789 28.1445C16.5273 28.1445 16.6497 28.1159 16.7461 28.0586C16.8424 28.0013 16.9141 27.9245 16.9609 27.8281C17.0078 27.7292 17.0312 27.6198 17.0312 27.5Z" fill="#A5A5A5"/>
</svg>
