<svg width="21" height="21" viewBox="0 0 21 21" fill="none" xmlns="http://www.w3.org/2000/svg">
<path d="M7.875 1.75H2.625C2.39294 1.75 2.17038 1.84219 2.00628 2.00628C1.84219 2.17038 1.75 2.39294 1.75 2.625V7.875C1.75 8.10706 1.84219 8.32962 2.00628 8.49372C2.17038 8.65781 2.39294 8.75 2.625 8.75H7.875C8.10706 8.75 8.32962 8.65781 8.49372 8.49372C8.65781 8.32962 8.75 8.10706 8.75 7.875V2.625C8.75 2.39294 8.65781 2.17038 8.49372 2.00628C8.32962 1.84219 8.10706 1.75 7.875 1.75ZM7.875 12.25H2.625C2.39294 12.25 2.17038 12.3422 2.00628 12.5063C1.84219 12.6704 1.75 12.8929 1.75 13.125V18.375C1.75 18.6071 1.84219 18.8296 2.00628 18.9937C2.17038 19.1578 2.39294 19.25 2.625 19.25H7.875C8.10706 19.25 8.32962 19.1578 8.49372 18.9937C8.65781 18.8296 8.75 18.6071 8.75 18.375V13.125C8.75 12.8929 8.65781 12.6704 8.49372 12.5063C8.32962 12.3422 8.10706 12.25 7.875 12.25ZM18.375 1.75H13.125C12.8929 1.75 12.6704 1.84219 12.5063 2.00628C12.3422 2.17038 12.25 2.39294 12.25 2.625V7.875C12.25 8.10706 12.3422 8.32962 12.5063 8.49372C12.6704 8.65781 12.8929 8.75 13.125 8.75H18.375C18.6071 8.75 18.8296 8.65781 18.9937 8.49372C19.1578 8.32962 19.25 8.10706 19.25 7.875V2.625C19.25 2.39294 19.1578 2.17038 18.9937 2.00628C18.8296 1.84219 18.6071 1.75 18.375 1.75Z" stroke="#BEF397" stroke-width="2" stroke-linejoin="round"/>
<path d="M12.25 12.25H19.25M15.75 15.75H19.25M12.25 19.25H19.25" stroke="#BEF397" stroke-width="4" stroke-linecap="round" stroke-linejoin="round"/>
</svg>
