<svg width="19" height="21" viewBox="0 0 19 21" fill="none" xmlns="http://www.w3.org/2000/svg">
<path d="M10.8499 6.82L12.2699 8.23L10.8499 9.65L9.43992 8.23L8.02992 9.65L9.43992 11.06L8.02992 12.47L6.60992 11.06L5.19992 12.47L8.02992 15.3L15.0999 8.23L12.2699 5.4L10.8499 6.82ZM18.9199 3L15.7999 6.11L17.9199 8.23L8.02992 18.13L5.89992 16L4.49992 17.42L5.89992 18.84L4.49992 20.25L0.249922 16L1.65992 14.6L3.07992 16L4.49992 14.6L2.36992 12.47L12.2699 2.58L14.3899 4.7L18.9199 0.16V3Z" fill="#A5A5A5"/>
</svg>
