<svg width="20" height="22" viewBox="0 0 20 22" fill="none" xmlns="http://www.w3.org/2000/svg">
<path d="M17.875 5.26999C18.2187 5.46545 18.5041 5.74896 18.7018 6.09134C18.8995 6.43373 19.0025 6.82262 19 7.21799V14.502C19 15.311 18.557 16.057 17.842 16.45L11.092 20.72C10.7574 20.9037 10.3818 21 10 21C9.61824 21 9.24264 20.9037 8.908 20.72L2.158 16.45C1.80817 16.2588 1.51612 15.9771 1.31241 15.6345C1.1087 15.2918 1.0008 14.9006 1 14.502V7.21699C1 6.40799 1.443 5.66299 2.158 5.26999L8.908 1.28999C9.25254 1.10002 9.63956 1.0004 10.033 1.0004C10.4264 1.0004 10.8135 1.10002 11.158 1.28999L17.908 5.26999H17.875Z" stroke="white" stroke-width="2" stroke-linecap="round" stroke-linejoin="round"/>
<path d="M13.5 8.42997C13.6532 8.51841 13.7802 8.64591 13.868 8.79945C13.9559 8.95299 14.0014 9.12708 14 9.30397V12.572C13.9999 12.7503 13.9521 12.9254 13.8616 13.0791C13.771 13.2328 13.641 13.3595 13.485 13.446L10.485 15.363C10.3366 15.4453 10.1697 15.4885 10 15.4885C9.8303 15.4885 9.6634 15.4453 9.515 15.363L6.515 13.446C6.35916 13.3595 6.22924 13.233 6.1387 13.0796C6.04815 12.9261 6.00027 12.7512 6 12.573V9.30397C5.99999 9.1257 6.04764 8.95066 6.13801 8.797C6.22839 8.64333 6.3582 8.51661 6.514 8.42997L9.514 6.64397C9.825 6.47097 10.204 6.47097 10.514 6.64397L13.514 8.43097L13.5 8.42997Z" stroke="white" stroke-width="2" stroke-linecap="round" stroke-linejoin="round"/>
<path d="M10 20V11M10 11L2.5 6.5M10 11L17.5 6.5M10 2V6.5M17.5 15L14 13M6 13L2.5 15" stroke="white" stroke-width="2" stroke-linecap="round" stroke-linejoin="round"/>
</svg>
