<svg width="19" height="18" viewBox="0 0 19 18" fill="none" xmlns="http://www.w3.org/2000/svg">
<path fill-rule="evenodd" clip-rule="evenodd" d="M2.12769 13.9547C2.25836 14.3656 2.45858 14.7509 2.71963 15.094L0.942501 16.879L1.751 17.6875L3.536 15.9104C3.87909 16.1717 4.26441 16.3724 4.67525 16.5036C5.59302 16.8086 6.58983 16.7737 7.484 16.4052C7.97103 16.2037 8.41316 15.9075 8.78469 15.5337L10.8125 13.498L5.13331 7.8175L3.09631 9.84531C2.71963 10.222 2.42956 10.6564 2.22613 11.1473C1.85774 12.0415 1.82281 13.0383 2.12769 13.9561V13.9547ZM3.2945 11.587C3.4371 11.2406 3.64725 10.926 3.91269 10.6617L5.13331 9.44106L9.18894 13.4967L7.96831 14.7173C7.70447 14.9831 7.39037 15.1937 7.04431 15.3368C6.69363 15.4862 6.31614 15.5625 5.93496 15.5609C5.55378 15.5593 5.17694 15.4799 4.8275 15.3276C4.481 15.178 4.17913 14.9719 3.92188 14.7081C3.65938 14.4522 3.452 14.149 3.30238 13.8025C3.15026 13.4532 3.07099 13.0766 3.06941 12.6957C3.06783 12.3148 3.14398 11.9375 3.29319 11.587H3.2945ZM9.626 5.03237L7.67825 7.06019L8.48675 7.87656L10.4424 5.84087L12.8836 8.28081L10.9267 10.3178L11.7431 11.125L13.6895 9.09719L14.498 9.90438L16.5337 7.87656C16.9089 7.50289 17.2048 7.05738 17.4039 6.56669C17.6066 6.08062 17.7106 5.55904 17.7097 5.03237C17.7097 4.59662 17.6441 4.17137 17.5128 3.75925C17.375 3.35237 17.1742 2.97569 16.9104 2.62788L18.6875 0.842876L17.8803 0.0356865L16.0953 1.8115C15.7475 1.549 15.3708 1.34819 14.9639 1.21037C14.5518 1.07912 14.1266 1.0135 13.6908 1.0135C13.1579 1.0135 12.6461 1.11456 12.1552 1.318C11.6591 1.52144 11.2233 1.8115 10.8453 2.18819L8.8175 4.22519L9.626 5.03237ZM12.5949 2.37719C12.9419 2.23365 13.314 2.16048 13.6895 2.16194C14.0846 2.16194 14.4586 2.23675 14.8117 2.38506C15.1518 2.53058 15.462 2.73797 15.7265 2.99669C15.9847 3.26131 16.1916 3.57148 16.3368 3.9115C16.4863 4.26618 16.5622 4.6475 16.5599 5.03237C16.5614 5.40943 16.4876 5.78299 16.3429 6.13118C16.1982 6.47937 15.9856 6.7952 15.7173 7.06019L14.4967 8.28081L10.4411 4.22519L11.6617 3.00456C11.9291 2.73683 12.246 2.52374 12.5949 2.37719Z" fill="black"/>
</svg>
