<svg width="25" height="26" viewBox="0 0 25 26" fill="none" xmlns="http://www.w3.org/2000/svg">
<circle cx="12.5" cy="12.5" r="12.5" fill="#BEF397"/>
<path d="M10.7784 16.7244V16.5398C10.7831 15.6828 10.8636 15.0009 11.0199 14.4943C11.1809 13.9877 11.4081 13.5805 11.7017 13.2727C11.9953 12.9602 12.3527 12.6738 12.7741 12.4134C13.063 12.2334 13.321 12.0369 13.5483 11.8239C13.7803 11.6061 13.9626 11.3646 14.0952 11.0994C14.2277 10.8295 14.294 10.5289 14.294 10.1974C14.294 9.82339 14.2064 9.49905 14.0312 9.22443C13.8561 8.94981 13.6193 8.73674 13.321 8.58523C13.0275 8.43371 12.6984 8.35795 12.3338 8.35795C11.9976 8.35795 11.678 8.43134 11.375 8.57812C11.0767 8.72017 10.8281 8.93797 10.6293 9.23153C10.4351 9.52036 10.3262 9.88731 10.3026 10.3324H7.77415C7.79782 9.43276 8.01563 8.67992 8.42756 8.07386C8.84422 7.4678 9.39347 7.01326 10.0753 6.71023C10.7618 6.4072 11.5194 6.25568 12.348 6.25568C13.2524 6.25568 14.0478 6.4143 14.7344 6.73153C15.4257 7.04877 15.9631 7.50095 16.3466 8.08807C16.7348 8.67045 16.929 9.36174 16.929 10.1619C16.929 10.7017 16.8414 11.1847 16.6662 11.6108C16.4957 12.0369 16.2519 12.4157 15.9347 12.7472C15.6174 13.0786 15.241 13.3745 14.8054 13.6349C14.4219 13.8717 14.107 14.1179 13.8608 14.3736C13.6193 14.6293 13.4394 14.9299 13.321 15.2756C13.2074 15.6165 13.1482 16.0379 13.1435 16.5398V16.7244H10.7784ZM12.0142 21.1562C11.5881 21.1562 11.2211 21.0047 10.9134 20.7017C10.6056 20.3987 10.4517 20.0294 10.4517 19.5938C10.4517 19.1676 10.6056 18.803 10.9134 18.5C11.2211 18.197 11.5881 18.0455 12.0142 18.0455C12.4356 18.0455 12.8002 18.197 13.108 18.5C13.4205 18.803 13.5767 19.1676 13.5767 19.5938C13.5767 19.8826 13.5033 20.1454 13.3565 20.3821C13.2145 20.6188 13.0251 20.8082 12.7884 20.9503C12.5563 21.0876 12.2983 21.1562 12.0142 21.1562Z" fill="white"/>
</svg>
