<svg width="32" height="32" viewBox="0 0 32 32" fill="none" xmlns="http://www.w3.org/2000/svg">
<path d="M16.0002 7.78L15.6872 7.875L3.18721 12.063L0.345215 13L2.00021 13.53V22.28C1.40321 22.627 1.00021 23.26 1.00021 24C1.00021 24.5304 1.21093 25.0391 1.586 25.4142C1.96107 25.7893 2.46978 26 3.00021 26C3.53065 26 4.03936 25.7893 4.41443 25.4142C4.7895 25.0391 5.00022 24.5304 5.00022 24C5.00022 23.26 4.59721 22.627 4.00021 22.28V14.22L6.00022 14.875V20C6.00022 20.82 6.50022 21.5 7.09421 21.97C7.68821 22.437 8.42622 22.767 9.31221 23.063C11.0862 23.653 13.4242 24 16.0002 24C18.5762 24 20.9142 23.654 22.6882 23.062C23.5742 22.767 24.3122 22.437 24.9062 21.969C25.5002 21.5 26.0002 20.82 26.0002 20V14.875L28.8132 13.937L31.6552 13L28.8122 12.062L16.3122 7.875L16.0002 7.78ZM16.0002 9.875L25.3752 13L16.0002 16.125L6.62522 13L16.0002 9.875ZM8.00022 15.563L15.6882 18.125L16.0002 18.219L16.3132 18.124L24.0002 15.562V20C24.0002 20.01 24.0042 20.126 23.6872 20.375C23.3712 20.625 22.8042 20.94 22.0622 21.188C20.5802 21.681 18.3952 22 16.0002 22C13.6052 22 11.4202 21.682 9.93721 21.187C9.19722 20.94 8.62922 20.624 8.31321 20.375C7.99521 20.125 8.00022 20.01 8.00022 20V15.563Z" fill="#A5A5A5"/>
<circle cx="22" cy="22" r="4.5" fill="#202020" stroke="#A5A5A5"/>
<path d="M22.7656 18.4141V19.5586H22.1484V18.4141H22.7656ZM22.6875 24.793V25.8438H22.0703V24.793H22.6875ZM23.0312 23.5C23.0312 23.3542 23.0065 23.2318 22.957 23.1328C22.9102 23.0339 22.832 22.9466 22.7227 22.8711C22.6133 22.7956 22.4688 22.7214 22.2891 22.6484C21.9453 22.513 21.6432 22.3724 21.3828 22.2266C21.1224 22.0781 20.9193 21.8932 20.7734 21.6719C20.6276 21.4505 20.5547 21.1667 20.5547 20.8203C20.5547 20.4974 20.6328 20.2174 20.7891 19.9805C20.9453 19.7409 21.1615 19.556 21.4375 19.4258C21.7161 19.2956 22.0378 19.2305 22.4023 19.2305C22.681 19.2305 22.9349 19.2721 23.1641 19.3555C23.3932 19.4388 23.5898 19.5586 23.7539 19.7148C23.9206 19.8711 24.0482 20.0638 24.1367 20.293C24.2253 20.5195 24.2695 20.7786 24.2695 21.0703H23.0469C23.0469 20.9167 23.0312 20.7839 23 20.6719C22.9688 20.5573 22.9232 20.4635 22.8633 20.3906C22.8034 20.3151 22.7331 20.2591 22.6523 20.2227C22.5742 20.1862 22.4857 20.168 22.3867 20.168C22.2435 20.168 22.1263 20.1979 22.0352 20.2578C21.944 20.3151 21.8776 20.3932 21.8359 20.4922C21.7943 20.5911 21.7734 20.7018 21.7734 20.8242C21.7734 20.9492 21.7956 21.0586 21.8398 21.1523C21.8867 21.2461 21.9648 21.332 22.0742 21.4102C22.1836 21.4883 22.3333 21.5677 22.5234 21.6484C22.862 21.7865 23.1615 21.9323 23.4219 22.0859C23.6823 22.237 23.8854 22.4232 24.0312 22.6445C24.1797 22.8633 24.2539 23.1458 24.2539 23.4922C24.2539 23.8307 24.1745 24.1185 24.0156 24.3555C23.8594 24.5924 23.6393 24.7734 23.3555 24.8984C23.0742 25.0208 22.7487 25.082 22.3789 25.082C22.1315 25.082 21.8867 25.0508 21.6445 24.9883C21.4049 24.9232 21.1862 24.8177 20.9883 24.6719C20.7904 24.526 20.6328 24.332 20.5156 24.0898C20.3984 23.8477 20.3398 23.5508 20.3398 23.1992H21.5625C21.5625 23.3815 21.5846 23.5339 21.6289 23.6562C21.6758 23.776 21.737 23.8724 21.8125 23.9453C21.8906 24.0156 21.9779 24.0664 22.0742 24.0977C22.1732 24.1289 22.2747 24.1445 22.3789 24.1445C22.5273 24.1445 22.6497 24.1159 22.7461 24.0586C22.8424 24.0013 22.9141 23.9245 22.9609 23.8281C23.0078 23.7292 23.0312 23.6198 23.0312 23.5Z" fill="#A5A5A5"/>
</svg>
