<svg width="39" height="39" viewBox="0 0 39 39" fill="none" xmlns="http://www.w3.org/2000/svg">
<rect x="1" y="5" width="35" height="28" rx="4" fill="#A5A5A5"/>
<path d="M8.7195 3C3.9705 3 0 6.972 0 11.7195V27.282C0 32.028 3.972 36 8.7195 36H30.282C35.028 36 39 32.028 39 27.2805V11.7195C39 6.9735 35.028 3 30.2805 3H8.7195ZM8.7195 6H30.282C33.3345 6 36 8.6655 36 11.7195V13.5H27C26.1675 13.5 25.5 12.8325 25.5 12C25.5 11.1675 26.1675 10.5 27 10.5C27.3978 10.5 27.7794 10.342 28.0607 10.0607C28.342 9.77935 28.5 9.39782 28.5 9C28.5 8.60217 28.342 8.22064 28.0607 7.93934C27.7794 7.65803 27.3978 7.5 27 7.5C24.5325 7.5 22.5 9.5325 22.5 12C22.5 13.938 23.766 15.591 25.5 16.2195V23.6715C23.703 24.8925 22.5 26.9415 22.5 29.25C22.5 30.6345 22.9395 31.9215 23.6715 33H15.33C16.0882 31.8961 16.496 30.5892 16.5 29.25C16.5 26.943 15.297 24.8925 13.5 23.6715V16.218C15.234 15.591 16.5 13.938 16.5 12C16.5 9.5325 14.4675 7.5 12 7.5H9C8.95303 7.49779 8.90597 7.49779 8.859 7.5C8.81253 7.49784 8.76598 7.49784 8.7195 7.5C8.32168 7.5372 7.95492 7.7309 7.69992 8.03851C7.44492 8.34612 7.32255 8.74242 7.35975 9.14025C7.39695 9.53807 7.59066 9.90483 7.89826 10.1598C8.20587 10.4148 8.60218 10.5372 9 10.5H12C12.8325 10.5 13.5 11.1675 13.5 12C13.5 12.8325 12.8325 13.5 12 13.5H3V11.718C3 8.6655 5.6655 6 8.7195 6ZM3 16.5H10.5V22.5H3V16.5ZM28.5 16.5H36V22.5H28.5V16.5ZM3 25.5H9.75C11.7585 25.5 13.5 27.2415 13.5 29.25C13.5 31.2585 11.7585 33 9.75 33H8.718C5.6655 33 3 30.3345 3 27.2805V25.5ZM29.25 25.5H36V27.282C36 30.3345 33.3345 33 30.2805 33H29.25C27.2415 33 25.5 31.2585 25.5 29.25C25.5 27.2415 27.2415 25.5 29.25 25.5Z" fill="#202020"/>
</svg>
